<?xml version="1.0" encoding="UTF-8"?>
<!DOCTYPE svg PUBLIC "-//W3C//DTD SVG 1.1//EN" "http://www.w3.org/Graphics/SVG/1.1/DTD/svg11.dtd">
<svg version="1.1" xmlns="http://www.w3.org/2000/svg" xmlns:xlink="http://www.w3.org/1999/xlink" x="0" y="0" width="768" height="256" viewBox="0, 0, 768, 256">
  <g id="レイヤー_1">
    <path d="M407.655,92.104 Q403.495,86.072 396.527,83.264 Q389.559,80.456 381.863,80.456 Q377.287,80.456 373.023,81.496 Q368.759,82.536 365.327,84.824 Q361.895,87.112 359.815,90.752 Q357.735,94.392 357.735,99.384 Q357.735,106.872 362.935,110.824 Q368.135,114.776 375.831,117.688 Q383.527,120.6 392.679,123.304 Q401.831,126.008 409.527,130.792 Q417.223,135.576 422.423,143.48 Q427.623,151.384 427.623,164.488 Q427.623,176.344 423.255,185.184 Q418.887,194.024 411.503,199.848 Q404.119,205.672 394.343,208.584 Q384.567,211.496 373.751,211.496 Q360.023,211.496 347.335,206.92 Q334.647,202.344 325.495,191.528 L345.255,172.392 Q350.039,179.672 357.839,183.728 Q365.639,187.784 374.375,187.784 Q378.951,187.784 383.527,186.536 Q388.103,185.288 391.847,182.792 Q395.591,180.296 397.879,176.448 Q400.167,172.6 400.167,167.608 Q400.167,159.496 394.967,155.128 Q389.767,150.76 382.071,147.744 Q374.375,144.728 365.223,142.024 Q356.071,139.32 348.375,134.64 Q340.679,129.96 335.479,122.16 Q330.279,114.36 330.279,101.256 Q330.279,89.816 334.959,81.496 Q339.639,73.176 347.231,67.664 Q354.823,62.152 364.599,59.448 Q374.375,56.744 384.567,56.744 Q396.215,56.744 407.135,60.28 Q418.055,63.816 426.791,71.928 z" fill="#798994"/>
    <path d="M462.999,107.912 L487.959,107.912 L487.959,207.752 L462.999,207.752 z M459.463,74.008 Q459.463,67.976 463.935,63.504 Q468.407,59.032 475.271,59.032 Q482.135,59.032 486.815,63.296 Q491.495,67.56 491.495,74.008 Q491.495,80.456 486.815,84.72 Q482.135,88.984 475.271,88.984 Q468.407,88.984 463.935,84.512 Q459.463,80.04 459.463,74.008 z" fill="#798994"/>
    <path d="M526.663,50.504 L551.623,50.504 L551.623,120.6 L552.247,120.6 Q554.119,118.104 557.031,115.504 Q559.943,112.904 564.103,110.616 Q568.263,108.328 573.671,106.872 Q579.079,105.416 586.151,105.416 Q596.759,105.416 605.703,109.472 Q614.647,113.528 620.991,120.6 Q627.335,127.672 630.871,137.24 Q634.407,146.808 634.407,157.832 Q634.407,168.856 631.079,178.424 Q627.751,187.992 621.303,195.064 Q614.855,202.136 605.703,206.192 Q596.551,210.248 585.111,210.248 Q574.503,210.248 565.351,206.088 Q556.199,201.928 550.791,192.776 L550.375,192.776 L550.375,207.752 L526.663,207.752 z M609.447,157.832 Q609.447,152.008 607.471,146.6 Q605.495,141.192 601.647,137.032 Q597.799,132.872 592.391,130.376 Q586.983,127.88 580.119,127.88 Q573.255,127.88 567.847,130.376 Q562.439,132.872 558.591,137.032 Q554.743,141.192 552.767,146.6 Q550.791,152.008 550.791,157.832 Q550.791,163.656 552.767,169.064 Q554.743,174.472 558.591,178.632 Q562.439,182.792 567.847,185.288 Q573.255,187.784 580.119,187.784 Q586.983,187.784 592.391,185.288 Q597.799,182.792 601.647,178.632 Q605.495,174.472 607.471,169.064 Q609.447,163.656 609.447,157.832 z" fill="#798994"/>
    <path d="M730.103,194.024 L729.479,194.024 Q724.071,202.552 715.751,206.4 Q707.431,210.248 697.447,210.248 Q690.583,210.248 684.031,208.376 Q677.479,206.504 672.383,202.76 Q667.287,199.016 664.167,193.4 Q661.047,187.784 661.047,180.296 Q661.047,172.184 663.959,166.464 Q666.871,160.744 671.759,156.896 Q676.647,153.048 683.095,150.76 Q689.543,148.472 696.511,147.328 Q703.479,146.184 710.551,145.872 Q717.623,145.56 723.863,145.56 L730.103,145.56 L730.103,142.856 Q730.103,133.496 723.655,128.816 Q717.207,124.136 707.223,124.136 Q699.319,124.136 692.455,126.944 Q685.591,129.752 680.599,134.536 L667.495,121.432 Q675.815,112.904 686.943,109.16 Q698.071,105.416 709.927,105.416 Q720.535,105.416 727.815,107.808 Q735.095,110.2 739.879,113.944 Q744.663,117.688 747.263,122.576 Q749.863,127.464 751.007,132.456 Q752.151,137.448 752.359,142.128 Q752.567,146.808 752.567,150.344 L752.567,207.752 L730.103,207.752 z M728.647,163.032 L723.447,163.032 Q718.247,163.032 711.799,163.448 Q705.351,163.864 699.631,165.424 Q693.911,166.984 689.959,170 Q686.007,173.016 686.007,178.424 Q686.007,181.96 687.567,184.352 Q689.127,186.744 691.623,188.408 Q694.119,190.072 697.239,190.8 Q700.359,191.528 703.479,191.528 Q716.375,191.528 722.511,185.392 Q728.647,179.256 728.647,168.648 z" fill="#798994"/>
    <path d="M143.5,249.376 C77.778,249.376 24.5,196.098 24.5,130.376 C24.5,64.654 77.778,11.376 143.5,11.376 C209.222,11.376 262.5,64.654 262.5,130.376 C262.5,196.098 209.222,249.376 143.5,249.376 z" fill="#FFFFFF"/>
    <path d="M143.5,10.876 C209.498,10.876 263,64.378 263,130.376 C263.003,154.191 256.4,174.7 244.099,194.896 L256.298,207.096 C265.317,216.115 265.221,230.834 256.083,239.971 C246.945,249.109 232.226,249.206 223.207,240.187 L211.586,228.566 C224.738,219.79 235.308,207.909 244.099,194.896 L203.337,154.134 C210.368,141.191 214.439,126.817 214.329,112.016 C213.734,64.958 177.408,27.607 130.352,25.842 L128.127,25.813 C80.519,25.813 41.925,64.407 41.925,112.016 C41.925,159.624 80.519,198.218 128.127,198.218 C142.852,198.031 157.401,194.557 170.246,187.226 L211.586,228.566 C191.631,242.617 167.785,249.568 143.5,249.876 C77.502,249.876 24,196.374 24,130.376 C24,64.378 77.502,10.876 143.5,10.876 z" fill="#3491D6"/>
    <path d="M127.912,62.234 C155.286,62.234 177.478,84.425 177.478,111.8 C177.478,139.175 155.286,161.366 127.912,161.366 C100.537,161.366 78.345,139.175 78.345,111.8 C78.345,84.425 100.537,62.234 127.912,62.234 L127.912,62.234 z" fill="#3491D6"/>
  </g>
</svg>
